<svg width="218" height="48" viewBox="0 0 218 48" fill="none" xmlns="http://www.w3.org/2000/svg">
<path d="M207.266 36.0877C205.614 36.0877 204.224 35.68 203.094 34.8644C201.986 34.028 201.139 32.8674 200.554 31.3827C199.989 29.898 199.707 28.1833 199.707 26.2385C199.707 24.2729 199.989 22.5581 200.554 21.0943C201.139 19.6306 201.986 18.4909 203.094 17.6753C204.224 16.8598 205.604 16.452 207.235 16.452C208.489 16.452 209.514 16.6821 210.309 17.1421C211.103 17.6022 211.72 18.2295 212.159 19.0241H212.912V10.5864H217.147V35.68H213.289V33.2333H212.536C212.138 34.007 211.511 34.6762 210.654 35.2408C209.817 35.8054 208.688 36.0877 207.266 36.0877ZM208.301 32.8883C209.723 32.8883 210.852 32.2923 211.689 31.1004C212.525 29.8875 212.944 28.2774 212.944 26.2699C212.944 24.2624 212.525 22.6627 211.689 21.4707C210.852 20.2579 209.723 19.6515 208.301 19.6515C206.963 19.6515 205.928 20.2161 205.196 21.3453C204.464 22.4745 204.098 24.116 204.098 26.2699C204.098 28.4237 204.464 30.0653 205.196 31.1945C205.928 32.3237 206.963 32.8883 208.301 32.8883Z" fill="black"/>
<path d="M190.236 36.1504C187.372 36.1504 185.186 35.2617 183.681 33.4842C182.175 31.6859 181.422 29.2706 181.422 26.2385C181.422 24.231 181.757 22.4954 182.426 21.0316C183.095 19.5678 184.078 18.4281 185.374 17.6126C186.692 16.7971 188.292 16.3893 190.174 16.3893C192.871 16.3893 194.931 17.2362 196.353 18.93C197.775 20.6029 198.486 23.06 198.486 26.3012V27.305H185.563C185.667 29.0197 186.106 30.3998 186.88 31.4454C187.675 32.491 188.793 33.0137 190.236 33.0137C191.324 33.0137 192.192 32.7001 192.84 32.0727C193.509 31.4454 193.969 30.6403 194.22 29.6575H198.266C198.036 30.8703 197.597 31.9682 196.949 32.951C196.322 33.9129 195.454 34.6866 194.345 35.2722C193.237 35.8577 191.867 36.1504 190.236 36.1504ZM185.594 24.4819H194.345C194.262 22.8718 193.854 21.6276 193.122 20.7493C192.411 19.871 191.418 19.4319 190.142 19.4319C188.825 19.4319 187.779 19.8606 187.006 20.7179C186.232 21.5753 185.761 22.83 185.594 24.4819Z" fill="black"/>
<path d="M174.647 35.68C174.166 35.1154 173.779 34.4357 173.486 33.6411C173.215 32.8465 173.079 31.6545 173.079 30.0653V19.9651H170.507V16.8598H173.141V12.1548H177.282V16.8598H180.387V19.9651H177.313V29.5321C177.313 31.205 177.491 32.4805 177.846 33.3588C178.223 34.2162 178.672 34.9272 179.195 35.4918V35.68H174.647Z" fill="black"/>
<path d="M158.368 36.0877C156.695 36.0877 155.294 35.6799 154.164 34.8644C153.035 34.028 152.178 32.8674 151.592 31.3827C151.028 29.898 150.745 28.1832 150.745 26.2385C150.745 24.2728 151.028 22.5581 151.592 21.0943C152.178 19.6305 153.035 18.4909 154.164 17.6753C155.315 16.8598 156.726 16.452 158.399 16.452C159.758 16.452 160.856 16.7239 161.692 17.2676C162.55 17.8113 163.177 18.4909 163.574 19.3064H164.327V16.8598H168.185V35.6799H164.327V33.2333H163.574C163.177 34.007 162.55 34.6762 161.692 35.2408C160.856 35.8054 159.748 36.0877 158.368 36.0877ZM159.34 32.8883C160.762 32.8883 161.891 32.2923 162.728 31.1004C163.564 29.8875 163.982 28.2774 163.982 26.2699C163.982 24.2624 163.564 22.6627 162.728 21.4707C161.891 20.2579 160.762 19.6515 159.34 19.6515C158.002 19.6515 156.967 20.2161 156.235 21.3453C155.503 22.4745 155.137 24.116 155.137 26.2699C155.137 28.4237 155.503 30.0653 156.235 31.1945C156.967 32.3237 158.002 32.8883 159.34 32.8883Z" fill="black"/>
<path d="M132.319 35.6799V16.8598H136.177V19.6828H136.93C137.306 18.7 137.902 17.9053 138.718 17.2989C139.554 16.6925 140.694 16.3893 142.137 16.3893C144.291 16.3893 145.869 17.0584 146.873 18.3968C147.898 19.7142 148.41 21.4707 148.41 23.6664V35.6799H144.176V24.4506C144.176 22.9868 143.914 21.868 143.391 21.0943C142.869 20.2997 142.043 19.9024 140.913 19.9024C139.533 19.9024 138.456 20.4461 137.683 21.5335C136.93 22.5999 136.553 23.9278 136.553 25.5171V35.6799H132.319Z" fill="black"/>
<path d="M121.531 36.1504C118.666 36.1504 116.481 35.2617 114.975 33.4842C113.47 31.6859 112.717 29.2706 112.717 26.2385C112.717 24.231 113.052 22.4954 113.721 21.0316C114.39 19.5678 115.373 18.4281 116.669 17.6126C117.987 16.7971 119.586 16.3893 121.468 16.3893C124.166 16.3893 126.226 17.2362 127.648 18.93C129.07 20.6029 129.781 23.06 129.781 26.3012V27.305H116.857C116.962 29.0197 117.401 30.3998 118.175 31.4454C118.969 32.491 120.088 33.0137 121.531 33.0137C122.618 33.0137 123.486 32.7001 124.135 32.0727C124.804 31.4454 125.264 30.6403 125.515 29.6575H129.561C129.331 30.8703 128.892 31.9682 128.244 32.951C127.616 33.9129 126.748 34.6866 125.64 35.2722C124.532 35.8577 123.162 36.1504 121.531 36.1504ZM116.889 24.4819H125.64C125.557 22.8718 125.149 21.6276 124.417 20.7493C123.706 19.871 122.713 19.4319 121.437 19.4319C120.12 19.4319 119.074 19.8606 118.3 20.7179C117.527 21.5753 117.056 22.83 116.889 24.4819Z" fill="black"/>
<path d="M96.3434 35.68V10.5864H100.547V24.2938H102.052L107.761 16.8598H112.341V17.048L105.565 25.6739L113.093 35.4917V35.68H108.075L102.052 27.6187H100.547V35.68H96.3434Z" fill="black"/>
<path d="M84.8151 36.1504C81.8457 36.1504 79.6187 35.2617 78.134 33.4842C76.6702 31.6859 75.9383 29.2811 75.9383 26.2699C75.9383 23.2586 76.6702 20.8643 78.134 19.0868C79.6187 17.2885 81.8457 16.3893 84.8151 16.3893C87.8264 16.3893 90.0639 17.2885 91.5276 19.0868C92.9914 20.8643 93.7233 23.2586 93.7233 26.2699C93.7233 29.2811 92.9914 31.6859 91.5276 33.4842C90.0639 35.2617 87.8264 36.1504 84.8151 36.1504ZM84.8465 33.0765C86.3939 33.0765 87.5231 32.491 88.2341 31.3199C88.966 30.128 89.332 28.4446 89.332 26.2699C89.332 24.0951 88.966 22.4222 88.2341 21.2512C87.5231 20.0592 86.3939 19.4632 84.8465 19.4632C83.2782 19.4632 82.128 20.0592 81.3961 21.2512C80.6852 22.4222 80.3297 24.0951 80.3297 26.2699C80.3297 28.4446 80.6852 30.128 81.3961 31.3199C82.128 32.491 83.2782 33.0765 84.8465 33.0765Z" fill="black"/>
<path d="M64.6942 35.6799V14.7582H57.0093V11.2137H76.7705V14.7582H69.0856V35.6799H64.6942Z" fill="black"/>
<path fill-rule="evenodd" clip-rule="evenodd" d="M23.5252 43.3301C34.4631 43.3301 43.3301 34.4631 43.3301 23.5252C43.3301 12.5872 34.4631 3.72026 23.5252 3.72026C12.5872 3.72026 3.72026 12.5872 3.72026 23.5252C3.72026 34.4631 12.5872 43.3301 23.5252 43.3301ZM23.5252 47.0504C36.5178 47.0504 47.0504 36.5178 47.0504 23.5252C47.0504 10.5326 36.5178 0 23.5252 0C10.5326 0 0 10.5326 0 23.5252C0 36.5178 10.5326 47.0504 23.5252 47.0504Z" fill="url(#paint0_linear_412_4645)"/>
<path d="M43.3301 23.5252C43.3301 34.4631 34.4631 43.3301 23.5252 43.3301C12.5872 43.3301 3.72026 34.4631 3.72026 23.5252C3.72026 12.5872 12.5872 3.72026 23.5252 3.72026C34.4631 3.72026 43.3301 12.5872 43.3301 23.5252Z" fill="url(#paint1_linear_412_4645)"/>
<g clip-path="url(#clip0_412_4645)">
<path d="M14.5072 13.3309V20.1485H17.4617V16.92H21.1643L23.3346 20.1485L26.09 24.2468V20.1485V16.92H29.7926V20.1485H32.9353V13.3309H14.5072Z" fill="#F5F5F5"/>
<path d="M26.0899 29.8637L21.1643 22.6307V29.8637H21.111H16.3848V33.7194H21.111H26.0933H30.8728V29.8637H26.0933H26.0899Z" fill="#F5F5F5"/>
</g>
<defs>
<linearGradient id="paint0_linear_412_4645" x1="47" y1="-4.94959" x2="-12" y2="57.0504" gradientUnits="userSpaceOnUse">
<stop stop-color="#C32B9D"/>
<stop offset="1" stop-color="#9146FF"/>
</linearGradient>
<linearGradient id="paint1_linear_412_4645" x1="47" y1="-4.94959" x2="-12" y2="57.0504" gradientUnits="userSpaceOnUse">
<stop stop-color="#C32B9D"/>
<stop offset="1" stop-color="#9146FF"/>
</linearGradient>
<clipPath id="clip0_412_4645">
<rect width="18.4281" height="20.3885" fill="white" transform="translate(14.5072 13.3309)"/>
</clipPath>
</defs>
</svg>
