<svg width="304" height="134" viewBox="0 0 304 134" fill="none" xmlns="http://www.w3.org/2000/svg">
<rect width="304" height="134" fill="#111827"/>
<path d="M231.398 77.1459C230.063 77.1459 228.94 76.8166 228.028 76.1579C227.133 75.4824 226.449 74.545 225.976 73.3459C225.52 72.1468 225.292 70.7619 225.292 69.1913C225.292 67.6037 225.52 66.2188 225.976 65.0366C226.449 63.8544 227.133 62.9339 228.028 62.2753C228.94 61.6166 230.055 61.2873 231.372 61.2873C232.386 61.2873 233.213 61.473 233.855 61.8446C234.497 62.2161 234.995 62.7228 235.35 63.3646H235.958V56.5499H239.378V76.8166H236.262V74.8406H235.654C235.333 75.4655 234.826 76.0059 234.134 76.4619C233.458 76.9179 232.546 77.1459 231.398 77.1459ZM232.234 74.5619C233.382 74.5619 234.294 74.0806 234.97 73.1179C235.645 72.1384 235.983 70.8379 235.983 69.2166C235.983 67.5953 235.645 66.3033 234.97 65.3406C234.294 64.361 233.382 63.8713 232.234 63.8713C231.153 63.8713 230.317 64.3273 229.726 65.2393C229.134 66.1513 228.839 67.477 228.839 69.2166C228.839 70.9561 229.134 72.2819 229.726 73.1939C230.317 74.1059 231.153 74.5619 232.234 74.5619Z" fill="white"/>
<path d="M217.644 77.1966C215.33 77.1966 213.565 76.4788 212.349 75.0432C211.133 73.5908 210.525 71.6401 210.525 69.1912C210.525 67.5699 210.795 66.1681 211.336 64.9859C211.876 63.8037 212.67 62.8832 213.717 62.2246C214.781 61.5659 216.073 61.2366 217.593 61.2366C219.772 61.2366 221.435 61.9206 222.584 63.2886C223.732 64.6397 224.306 66.6241 224.306 69.2419V70.0526H213.869C213.953 71.4375 214.308 72.5521 214.933 73.3966C215.575 74.241 216.478 74.6632 217.644 74.6632C218.522 74.6632 219.223 74.4099 219.746 73.9032C220.287 73.3966 220.658 72.7463 220.861 71.9526H224.129C223.943 72.9321 223.588 73.8188 223.065 74.6126C222.558 75.3895 221.857 76.0143 220.962 76.4872C220.067 76.9601 218.961 77.1966 217.644 77.1966ZM213.894 67.7726H220.962C220.895 66.4721 220.565 65.4672 219.974 64.7579C219.4 64.0486 218.598 63.6939 217.568 63.6939C216.504 63.6939 215.659 64.0401 215.034 64.7326C214.409 65.425 214.029 66.4383 213.894 67.7726Z" fill="white"/>
<path d="M205.053 76.8167C204.664 76.3607 204.352 75.8118 204.116 75.17C203.896 74.5282 203.786 73.5655 203.786 72.282V64.1246H201.709V61.6167H203.837V57.8167H207.181V61.6167H209.689V64.1246H207.206V71.8513C207.206 73.2024 207.35 74.2327 207.637 74.942C207.941 75.6344 208.304 76.2086 208.726 76.6646V76.8167H205.053Z" fill="white"/>
<path d="M191.905 77.146C190.554 77.146 189.422 76.8167 188.51 76.158C187.598 75.4825 186.906 74.5451 186.433 73.346C185.977 72.1469 185.749 70.762 185.749 69.1914C185.749 67.6038 185.977 66.2189 186.433 65.0367C186.906 63.8545 187.598 62.934 188.51 62.2754C189.439 61.6167 190.579 61.2874 191.93 61.2874C193.028 61.2874 193.915 61.5069 194.59 61.946C195.283 62.3851 195.789 62.934 196.11 63.5927H196.718V61.6167H199.834V76.8167H196.718V74.8407H196.11C195.789 75.4656 195.283 76.006 194.59 76.462C193.915 76.918 193.02 77.146 191.905 77.146ZM192.69 74.562C193.839 74.562 194.751 74.0807 195.426 73.118C196.102 72.1385 196.44 70.838 196.44 69.2167C196.44 67.5954 196.102 66.3034 195.426 65.3407C194.751 64.3611 193.839 63.8714 192.69 63.8714C191.609 63.8714 190.773 64.3274 190.182 65.2394C189.591 66.1514 189.296 67.4771 189.296 69.2167C189.296 70.9562 189.591 72.282 190.182 73.194C190.773 74.106 191.609 74.562 192.69 74.562Z" fill="white"/>
<path d="M170.867 76.8166V61.6166H173.983V63.8966H174.591C174.895 63.1028 175.376 62.461 176.035 61.9712C176.71 61.4815 177.631 61.2366 178.796 61.2366C180.536 61.2366 181.811 61.777 182.621 62.8579C183.449 63.9219 183.863 65.3406 183.863 67.1139V76.8166H180.443V67.7472C180.443 66.565 180.232 65.6615 179.809 65.0366C179.387 64.3948 178.72 64.0739 177.808 64.0739C176.693 64.0739 175.824 64.513 175.199 65.3912C174.591 66.2526 174.287 67.325 174.287 68.6086V76.8166H170.867Z" fill="white"/>
<path d="M162.154 77.1966C159.84 77.1966 158.075 76.4788 156.859 75.0432C155.643 73.5908 155.035 71.6401 155.035 69.1912C155.035 67.5699 155.306 66.1681 155.846 64.9859C156.386 63.8037 157.18 62.8832 158.227 62.2246C159.291 61.5659 160.583 61.2366 162.103 61.2366C164.282 61.2366 165.946 61.9206 167.094 63.2886C168.242 64.6397 168.817 66.6241 168.817 69.2419V70.0526H158.379C158.464 71.4375 158.818 72.5521 159.443 73.3966C160.085 74.241 160.989 74.6632 162.154 74.6632C163.032 74.6632 163.733 74.4099 164.257 73.9032C164.797 73.3966 165.169 72.7463 165.371 71.9526H168.639C168.454 72.9321 168.099 73.8188 167.575 74.6126C167.069 75.3895 166.368 76.0143 165.473 76.4872C164.578 76.9601 163.471 77.1966 162.154 77.1966ZM158.405 67.7726H165.473C165.405 66.4721 165.076 65.4672 164.485 64.7579C163.91 64.0486 163.108 63.6939 162.078 63.6939C161.014 63.6939 160.17 64.0401 159.545 64.7326C158.92 65.425 158.54 66.4383 158.405 67.7726Z" fill="white"/>
<path d="M141.811 76.8166V56.5499H145.206V67.6206H146.422L151.033 61.6166H154.731V61.7686L149.259 68.7353L155.339 76.6646V76.8166H151.286L146.422 70.3059H145.206V76.8166H141.811Z" fill="white"/>
<path d="M132.501 77.1966C130.102 77.1966 128.304 76.4788 127.105 75.0432C125.922 73.5908 125.331 71.6486 125.331 69.2166C125.331 66.7846 125.922 64.8508 127.105 63.4152C128.304 61.9628 130.102 61.2366 132.501 61.2366C134.933 61.2366 136.74 61.9628 137.922 63.4152C139.104 64.8508 139.695 66.7846 139.695 69.2166C139.695 71.6486 139.104 73.5908 137.922 75.0432C136.74 76.4788 134.933 77.1966 132.501 77.1966ZM132.526 74.7139C133.776 74.7139 134.688 74.241 135.262 73.2952C135.853 72.3326 136.149 70.973 136.149 69.2166C136.149 67.4601 135.853 66.109 135.262 65.1632C134.688 64.2006 133.776 63.7192 132.526 63.7192C131.259 63.7192 130.33 64.2006 129.739 65.1632C129.165 66.109 128.878 67.4601 128.878 69.2166C128.878 70.973 129.165 72.3326 129.739 73.2952C130.33 74.241 131.259 74.7139 132.526 74.7139Z" fill="white"/>
<path d="M116.25 76.8166V59.9193H110.043V57.0566H126.003V59.9193H119.797V76.8166H116.25Z" fill="white"/>
<path fill-rule="evenodd" clip-rule="evenodd" d="M83 82.9953C91.834 82.9953 98.9953 75.834 98.9953 67C98.9953 58.166 91.834 51.0047 83 51.0047C74.166 51.0047 67.0047 58.166 67.0047 67C67.0047 75.834 74.166 82.9953 83 82.9953ZM83 86C93.4934 86 102 77.4934 102 67C102 56.5066 93.4934 48 83 48C72.5066 48 64 56.5066 64 67C64 77.4934 72.5066 86 83 86Z" fill="url(#paint0_linear_460_4453)"/>
<g clip-path="url(#clip0_460_4453)">
<path d="M75.7167 58.7667V64.2729H78.1029V61.6654H81.0933L82.8461 64.2729L85.0714 67.5828V64.2729V61.6654H88.0618V64.2729H90.6V58.7667H75.7167Z" fill="url(#paint1_linear_460_4453)"/>
<path d="M85.0715 72.1192L81.0933 66.2776V72.1192H81.0502H77.2332V75.2333H81.0502H85.0742H88.9343V72.1192H85.0742H85.0715Z" fill="url(#paint2_linear_460_4453)"/>
</g>
<defs>
<linearGradient id="paint0_linear_460_4453" x1="101.959" y1="44.0025" x2="54.3083" y2="94.0765" gradientUnits="userSpaceOnUse">
<stop stop-color="#C32B9D"/>
<stop offset="1" stop-color="#9146FF"/>
</linearGradient>
<linearGradient id="paint1_linear_460_4453" x1="90.5841" y1="57.8393" x2="81.1143" y2="74.6389" gradientUnits="userSpaceOnUse">
<stop stop-color="#C32B9D"/>
<stop offset="1" stop-color="#9146FF"/>
</linearGradient>
<linearGradient id="paint2_linear_460_4453" x1="88.9218" y1="65.3355" x2="78.2199" y2="80.029" gradientUnits="userSpaceOnUse">
<stop stop-color="#C32B9D"/>
<stop offset="1" stop-color="#9146FF"/>
</linearGradient>
<clipPath id="clip0_460_4453">
<rect width="14.8833" height="16.4667" fill="white" transform="translate(75.7167 58.7667)"/>
</clipPath>
</defs>
</svg>
