<svg width="95" height="95" viewBox="0 0 95 95" fill="none" xmlns="http://www.w3.org/2000/svg">
<path fill-rule="evenodd" clip-rule="evenodd" d="M47.0511 86.6615C68.9273 86.6615 86.6615 68.9273 86.6615 47.0511C86.6615 25.1748 68.9273 7.44063 47.0511 7.44063C25.1748 7.44063 7.44063 25.1748 7.44063 47.0511C7.44063 68.9273 25.1748 86.6615 47.0511 86.6615ZM47.0511 94.1021C73.0366 94.1021 94.1021 73.0367 94.1021 47.0511C94.1021 21.0655 73.0366 0 47.0511 0C21.0655 0 0 21.0655 0 47.0511C0 73.0367 21.0655 94.1021 47.0511 94.1021Z" fill="url(#paint0_linear_460_4434)"/>
<g clip-path="url(#clip0_460_4434)">
<path d="M29.0149 26.6624V40.2976H34.924V33.8406H42.3293L46.67 40.2976L52.1808 48.4944V40.2976V33.8406H59.5861V40.2976H65.8716V26.6624H29.0149Z" fill="url(#paint1_linear_460_4434)"/>
<path d="M52.1808 59.7283L42.3293 45.2622V59.7283H42.2227H32.7703V67.4399H42.2227H52.1875H61.7466V59.7283H52.1875H52.1808Z" fill="url(#paint2_linear_460_4434)"/>
</g>
<defs>
<linearGradient id="paint0_linear_460_4434" x1="94.0014" y1="-9.89932" x2="-24.0004" y2="114.103" gradientUnits="userSpaceOnUse">
<stop stop-color="#C32B9D"/>
<stop offset="1" stop-color="#9146FF"/>
</linearGradient>
<linearGradient id="paint1_linear_460_4434" x1="65.8321" y1="24.3657" x2="42.3815" y2="65.9678" gradientUnits="userSpaceOnUse">
<stop stop-color="#C32B9D"/>
<stop offset="1" stop-color="#9146FF"/>
</linearGradient>
<linearGradient id="paint2_linear_460_4434" x1="61.7156" y1="42.9292" x2="35.2138" y2="79.3159" gradientUnits="userSpaceOnUse">
<stop stop-color="#C32B9D"/>
<stop offset="1" stop-color="#9146FF"/>
</linearGradient>
<clipPath id="clip0_460_4434">
<rect width="36.8567" height="40.7776" fill="white" transform="translate(29.0149 26.6624)"/>
</clipPath>
</defs>
</svg>
