<svg width="304" height="134" viewBox="0 0 304 134" fill="none" xmlns="http://www.w3.org/2000/svg">
<rect width="304" height="134" fill="url(#paint0_linear_460_4452)"/>
<path d="M231.398 75.1459C230.063 75.1459 228.94 74.8166 228.028 74.1579C227.133 73.4824 226.449 72.545 225.976 71.3459C225.52 70.1468 225.292 68.7619 225.292 67.1913C225.292 65.6037 225.52 64.2188 225.976 63.0366C226.449 61.8544 227.133 60.9339 228.028 60.2753C228.94 59.6166 230.055 59.2873 231.372 59.2873C232.386 59.2873 233.213 59.473 233.855 59.8446C234.497 60.2161 234.995 60.7228 235.35 61.3646H235.958V54.5499H239.378V74.8166H236.262V72.8406H235.654C235.333 73.4655 234.826 74.0059 234.134 74.4619C233.458 74.9179 232.546 75.1459 231.398 75.1459ZM232.234 72.5619C233.382 72.5619 234.294 72.0806 234.97 71.1179C235.645 70.1384 235.983 68.8379 235.983 67.2166C235.983 65.5953 235.645 64.3033 234.97 63.3406C234.294 62.361 233.382 61.8713 232.234 61.8713C231.153 61.8713 230.317 62.3273 229.726 63.2393C229.134 64.1513 228.839 65.477 228.839 67.2166C228.839 68.9561 229.134 70.2819 229.726 71.1939C230.317 72.1059 231.153 72.5619 232.234 72.5619Z" fill="white"/>
<path d="M217.644 75.1966C215.33 75.1966 213.565 74.4788 212.349 73.0432C211.133 71.5908 210.525 69.6401 210.525 67.1912C210.525 65.5699 210.795 64.1681 211.336 62.9859C211.876 61.8037 212.67 60.8832 213.717 60.2246C214.781 59.5659 216.073 59.2366 217.593 59.2366C219.772 59.2366 221.435 59.9206 222.584 61.2886C223.732 62.6397 224.306 64.6241 224.306 67.2419V68.0526H213.869C213.953 69.4375 214.308 70.5521 214.933 71.3966C215.575 72.241 216.478 72.6632 217.644 72.6632C218.522 72.6632 219.223 72.4099 219.746 71.9032C220.287 71.3966 220.658 70.7463 220.861 69.9526H224.129C223.943 70.9321 223.588 71.8188 223.065 72.6126C222.558 73.3895 221.857 74.0143 220.962 74.4872C220.067 74.9601 218.961 75.1966 217.644 75.1966ZM213.894 65.7726H220.962C220.895 64.4721 220.565 63.4672 219.974 62.7579C219.4 62.0486 218.598 61.6939 217.568 61.6939C216.504 61.6939 215.659 62.0401 215.034 62.7326C214.409 63.425 214.029 64.4383 213.894 65.7726Z" fill="white"/>
<path d="M205.053 74.8167C204.664 74.3607 204.352 73.8118 204.116 73.17C203.896 72.5282 203.786 71.5655 203.786 70.282V62.1246H201.709V59.6167H203.837V55.8167H207.181V59.6167H209.689V62.1246H207.206V69.8513C207.206 71.2024 207.35 72.2327 207.637 72.942C207.941 73.6344 208.304 74.2086 208.726 74.6646V74.8167H205.053Z" fill="white"/>
<path d="M191.905 75.146C190.554 75.146 189.422 74.8167 188.51 74.158C187.598 73.4825 186.906 72.5451 186.433 71.346C185.977 70.1469 185.749 68.762 185.749 67.1914C185.749 65.6038 185.977 64.2189 186.433 63.0367C186.906 61.8545 187.598 60.934 188.51 60.2754C189.439 59.6167 190.579 59.2874 191.93 59.2874C193.028 59.2874 193.915 59.5069 194.59 59.946C195.283 60.3851 195.789 60.934 196.11 61.5927H196.718V59.6167H199.834V74.8167H196.718V72.8407H196.11C195.789 73.4656 195.283 74.006 194.59 74.462C193.915 74.918 193.02 75.146 191.905 75.146ZM192.69 72.562C193.839 72.562 194.751 72.0807 195.426 71.118C196.102 70.1385 196.44 68.838 196.44 67.2167C196.44 65.5954 196.102 64.3034 195.426 63.3407C194.751 62.3611 193.839 61.8714 192.69 61.8714C191.609 61.8714 190.773 62.3274 190.182 63.2394C189.591 64.1514 189.296 65.4771 189.296 67.2167C189.296 68.9562 189.591 70.282 190.182 71.194C190.773 72.106 191.609 72.562 192.69 72.562Z" fill="white"/>
<path d="M170.867 74.8166V59.6166H173.983V61.8966H174.591C174.895 61.1028 175.376 60.461 176.035 59.9712C176.71 59.4815 177.631 59.2366 178.796 59.2366C180.536 59.2366 181.811 59.777 182.621 60.8579C183.449 61.9219 183.863 63.3406 183.863 65.1139V74.8166H180.443V65.7472C180.443 64.565 180.232 63.6615 179.809 63.0366C179.387 62.3948 178.72 62.0739 177.808 62.0739C176.693 62.0739 175.824 62.513 175.199 63.3912C174.591 64.2526 174.287 65.325 174.287 66.6086V74.8166H170.867Z" fill="white"/>
<path d="M162.154 75.1966C159.84 75.1966 158.075 74.4788 156.859 73.0432C155.643 71.5908 155.035 69.6401 155.035 67.1912C155.035 65.5699 155.306 64.1681 155.846 62.9859C156.386 61.8037 157.18 60.8832 158.227 60.2246C159.291 59.5659 160.583 59.2366 162.103 59.2366C164.282 59.2366 165.946 59.9206 167.094 61.2886C168.242 62.6397 168.817 64.6241 168.817 67.2419V68.0526H158.379C158.464 69.4375 158.818 70.5521 159.443 71.3966C160.085 72.241 160.989 72.6632 162.154 72.6632C163.032 72.6632 163.733 72.4099 164.257 71.9032C164.797 71.3966 165.169 70.7463 165.371 69.9526H168.639C168.454 70.9321 168.099 71.8188 167.575 72.6126C167.069 73.3895 166.368 74.0143 165.473 74.4872C164.578 74.9601 163.471 75.1966 162.154 75.1966ZM158.405 65.7726H165.473C165.405 64.4721 165.076 63.4672 164.485 62.7579C163.91 62.0486 163.108 61.6939 162.078 61.6939C161.014 61.6939 160.17 62.0401 159.545 62.7326C158.92 63.425 158.54 64.4383 158.405 65.7726Z" fill="white"/>
<path d="M141.811 74.8166V54.5499H145.206V65.6206H146.422L151.033 59.6166H154.731V59.7686L149.259 66.7353L155.339 74.6646V74.8166H151.286L146.422 68.3059H145.206V74.8166H141.811Z" fill="white"/>
<path d="M132.501 75.1966C130.102 75.1966 128.304 74.4788 127.105 73.0432C125.922 71.5908 125.331 69.6486 125.331 67.2166C125.331 64.7846 125.922 62.8508 127.105 61.4152C128.304 59.9628 130.102 59.2366 132.501 59.2366C134.933 59.2366 136.74 59.9628 137.922 61.4152C139.104 62.8508 139.695 64.7846 139.695 67.2166C139.695 69.6486 139.104 71.5908 137.922 73.0432C136.74 74.4788 134.933 75.1966 132.501 75.1966ZM132.526 72.7139C133.776 72.7139 134.688 72.241 135.262 71.2952C135.853 70.3326 136.149 68.973 136.149 67.2166C136.149 65.4601 135.853 64.109 135.262 63.1632C134.688 62.2006 133.776 61.7192 132.526 61.7192C131.259 61.7192 130.33 62.2006 129.739 63.1632C129.165 64.109 128.878 65.4601 128.878 67.2166C128.878 68.973 129.165 70.3326 129.739 71.2952C130.33 72.241 131.259 72.7139 132.526 72.7139Z" fill="white"/>
<path d="M116.25 74.8166V57.9193H110.043V55.0566H126.003V57.9193H119.797V74.8166H116.25Z" fill="white"/>
<path fill-rule="evenodd" clip-rule="evenodd" d="M83 80.9953C91.834 80.9953 98.9953 73.834 98.9953 65C98.9953 56.166 91.834 49.0047 83 49.0047C74.166 49.0047 67.0047 56.166 67.0047 65C67.0047 73.834 74.166 80.9953 83 80.9953ZM83 84C93.4934 84 102 75.4934 102 65C102 54.5066 93.4934 46 83 46C72.5066 46 64 54.5066 64 65C64 75.4934 72.5066 84 83 84Z" fill="white"/>
<g clip-path="url(#clip0_460_4452)">
<path d="M75.7167 56.7667V62.2729H78.1029V59.6654H81.0933L82.8461 62.2729L85.0714 65.5828V62.2729V59.6654H88.0618V62.2729H90.6V56.7667H75.7167Z" fill="white"/>
<path d="M85.0715 70.1192L81.0933 64.2776V70.1192H81.0502H77.2332V73.2333H81.0502H85.0742H88.9343V70.1192H85.0742H85.0715Z" fill="white"/>
</g>
<defs>
<linearGradient id="paint0_linear_460_4452" x1="303.675" y1="-14.0965" x2="183.652" y2="272.038" gradientUnits="userSpaceOnUse">
<stop stop-color="#C32B9D"/>
<stop offset="1" stop-color="#9146FF"/>
</linearGradient>
<clipPath id="clip0_460_4452">
<rect width="14.8833" height="16.4667" fill="white" transform="translate(75.7167 56.7667)"/>
</clipPath>
</defs>
</svg>
