<svg width="218" height="48" viewBox="0 0 218 48" fill="none" xmlns="http://www.w3.org/2000/svg">
<path d="M207.269 36.0881C205.617 36.0881 204.227 35.6803 203.097 34.8648C201.989 34.0283 201.142 32.8677 200.557 31.383C199.992 29.8983 199.71 28.1835 199.71 26.2387C199.71 24.2731 199.992 22.5583 200.557 21.0945C201.142 19.6307 201.989 18.491 203.097 17.6755C204.227 16.8599 205.607 16.4521 207.238 16.4521C208.493 16.4521 209.517 16.6822 210.312 17.1422C211.107 17.6023 211.723 18.2296 212.163 19.0242H212.915V10.5864H217.15V35.6803H213.292V33.2337H212.539C212.142 34.0074 211.514 34.6766 210.657 35.2412C209.82 35.8058 208.691 36.0881 207.269 36.0881ZM208.304 32.8886C209.726 32.8886 210.856 32.2927 211.692 31.1007C212.529 29.8878 212.947 28.2776 212.947 26.2701C212.947 24.2626 212.529 22.6629 211.692 21.4709C210.856 20.258 209.726 19.6516 208.304 19.6516C206.966 19.6516 205.931 20.2162 205.199 21.3454C204.467 22.4747 204.101 24.1162 204.101 26.2701C204.101 28.424 204.467 30.0656 205.199 31.1948C205.931 32.324 206.966 32.8886 208.304 32.8886Z" fill="black"/>
<path d="M190.239 36.1507C187.374 36.1507 185.189 35.262 183.683 33.4845C182.178 31.6861 181.425 29.2708 181.425 26.2386C181.425 24.2311 181.76 22.4955 182.429 21.0317C183.098 19.5678 184.081 18.4282 185.377 17.6126C186.695 16.7971 188.294 16.3893 190.176 16.3893C192.874 16.3893 194.934 17.2362 196.356 18.93C197.778 20.603 198.489 23.0601 198.489 26.3014V27.3051H185.565C185.67 29.0199 186.109 30.4 186.883 31.4456C187.678 32.4912 188.796 33.014 190.239 33.014C191.327 33.014 192.194 32.7003 192.843 32.073C193.512 31.4456 193.972 30.6405 194.223 29.6577H198.269C198.039 30.8706 197.6 31.9684 196.952 32.9513C196.324 33.9132 195.457 34.6869 194.348 35.2724C193.24 35.858 191.87 36.1507 190.239 36.1507ZM185.597 24.4821H194.348C194.265 22.8719 193.857 21.6276 193.125 20.7493C192.414 19.8711 191.421 19.4319 190.145 19.4319C188.828 19.4319 187.782 19.8606 187.008 20.718C186.235 21.5754 185.764 22.8301 185.597 24.4821Z" fill="black"/>
<path d="M174.65 35.6803C174.169 35.1157 173.782 34.4361 173.489 33.6414C173.217 32.8468 173.081 31.6548 173.081 30.0656V19.9653H170.509V16.8599H173.144V12.1548H177.284V16.8599H180.39V19.9653H177.316V29.5323C177.316 31.2052 177.494 32.4808 177.849 33.3591C178.226 34.2165 178.675 34.9275 179.198 35.4921V35.6803H174.65Z" fill="black"/>
<path d="M158.37 36.0883C156.697 36.0883 155.296 35.6805 154.167 34.8649C153.037 34.0285 152.18 32.8679 151.595 31.3831C151.03 29.8984 150.748 28.1837 150.748 26.2389C150.748 24.2732 151.03 22.5585 151.595 21.0946C152.18 19.6308 153.037 18.4911 154.167 17.6756C155.317 16.86 156.728 16.4523 158.401 16.4523C159.761 16.4523 160.858 16.7241 161.695 17.2678C162.552 17.8115 163.18 18.4911 163.577 19.3067H164.33V16.86H168.188V35.6805H164.33V33.2338H163.577C163.18 34.0075 162.552 34.6767 161.695 35.2413C160.858 35.8059 159.75 36.0883 158.37 36.0883ZM159.342 32.8888C160.764 32.8888 161.894 32.2928 162.73 31.1008C163.566 29.888 163.985 28.2778 163.985 26.2703C163.985 24.2627 163.566 22.663 162.73 21.4711C161.894 20.2582 160.764 19.6517 159.342 19.6517C158.004 19.6517 156.969 20.2164 156.237 21.3456C155.505 22.4748 155.139 24.1164 155.139 26.2703C155.139 28.4242 155.505 30.0657 156.237 31.1949C156.969 32.3242 158.004 32.8888 159.342 32.8888Z" fill="black"/>
<path d="M132.321 35.6802V16.8598H136.179V19.6829H136.932C137.308 18.7 137.904 17.9054 138.72 17.2989C139.556 16.6925 140.696 16.3893 142.139 16.3893C144.293 16.3893 145.872 17.0585 146.875 18.3968C147.9 19.7142 148.412 21.4708 148.412 23.6665V35.6802H144.178V24.4507C144.178 22.9869 143.916 21.8681 143.393 21.0944C142.871 20.2997 142.045 19.9024 140.915 19.9024C139.535 19.9024 138.458 20.4461 137.685 21.5335C136.932 22.6 136.555 23.9279 136.555 25.5172V35.6802H132.321Z" fill="black"/>
<path d="M121.533 36.1507C118.668 36.1507 116.483 35.262 114.977 33.4845C113.472 31.6861 112.719 29.2708 112.719 26.2386C112.719 24.2311 113.053 22.4955 113.722 21.0317C114.392 19.5678 115.374 18.4282 116.671 17.6126C117.988 16.7971 119.588 16.3893 121.47 16.3893C124.168 16.3893 126.228 17.2362 127.65 18.93C129.072 20.603 129.783 23.0601 129.783 26.3014V27.3051H116.859C116.964 29.0199 117.403 30.4 118.177 31.4456C118.971 32.4912 120.09 33.014 121.533 33.014C122.62 33.014 123.488 32.7003 124.136 32.073C124.806 31.4456 125.266 30.6405 125.517 29.6577H129.563C129.333 30.8706 128.894 31.9684 128.246 32.9513C127.618 33.9132 126.75 34.6869 125.642 35.2724C124.534 35.858 123.164 36.1507 121.533 36.1507ZM116.891 24.4821H125.642C125.558 22.8719 125.151 21.6276 124.419 20.7493C123.708 19.8711 122.714 19.4319 121.439 19.4319C120.121 19.4319 119.076 19.8606 118.302 20.718C117.528 21.5754 117.058 22.8301 116.891 24.4821Z" fill="black"/>
<path d="M96.3449 35.6803V10.5864H100.548V24.294H102.054L107.763 16.8599H112.342V17.0481L105.567 25.6741L113.095 35.4921V35.6803H108.076L102.054 27.6189H100.548V35.6803H96.3449Z" fill="black"/>
<path d="M84.8164 36.1507C81.847 36.1507 79.6199 35.262 78.1352 33.4845C76.6714 31.6861 75.9395 29.2813 75.9395 26.27C75.9395 23.2587 76.6714 20.8644 78.1352 19.0869C79.6199 17.2885 81.847 16.3893 84.8164 16.3893C87.8277 16.3893 90.0652 17.2885 91.529 19.0869C92.9929 20.8644 93.7248 23.2587 93.7248 26.27C93.7248 29.2813 92.9929 31.6861 91.529 33.4845C90.0652 35.262 87.8277 36.1507 84.8164 36.1507ZM84.8478 33.0767C86.3952 33.0767 87.5245 32.4912 88.2355 31.3202C88.9674 30.1282 89.3333 28.4448 89.3333 26.27C89.3333 24.0952 88.9674 22.4223 88.2355 21.2512C87.5245 20.0593 86.3952 19.4633 84.8478 19.4633C83.2794 19.4633 82.1293 20.0593 81.3974 21.2512C80.6864 22.4223 80.3309 24.0952 80.3309 26.27C80.3309 28.4448 80.6864 30.1282 81.3974 31.3202C82.1293 32.4912 83.2794 33.0767 84.8478 33.0767Z" fill="black"/>
<path d="M64.6952 35.6803V14.7583H57.0102V11.2137H76.7716V14.7583H69.0866V35.6803H64.6952Z" fill="black"/>
<path fill-rule="evenodd" clip-rule="evenodd" d="M23.5255 43.3307C34.4636 43.3307 43.3307 34.4637 43.3307 23.5255C43.3307 12.5874 34.4636 3.72032 23.5255 3.72032C12.5874 3.72032 3.72032 12.5874 3.72032 23.5255C3.72032 34.4637 12.5874 43.3307 23.5255 43.3307ZM23.5255 47.0511C36.5183 47.0511 47.0511 36.5183 47.0511 23.5255C47.0511 10.5327 36.5183 0 23.5255 0C10.5327 0 0 10.5327 0 23.5255C0 36.5183 10.5327 47.0511 23.5255 47.0511Z" fill="url(#paint0_linear_412_4628)"/>
<g clip-path="url(#clip0_412_4628)">
<path d="M14.5074 13.3312V20.1488H17.462V16.9203H21.1647L23.335 20.1488L26.0904 24.2472V20.1488V16.9203H29.793V20.1488H32.9358V13.3312H14.5074Z" fill="url(#paint1_linear_412_4628)"/>
<path d="M26.0904 29.8641L21.1647 22.6311V29.8641H21.1114H16.3851V33.7199H21.1114H26.0938H30.8733V29.8641H26.0938H26.0904Z" fill="url(#paint2_linear_412_4628)"/>
</g>
<defs>
<linearGradient id="paint0_linear_412_4628" x1="47.0007" y1="-4.94966" x2="-12.0002" y2="57.0513" gradientUnits="userSpaceOnUse">
<stop stop-color="#C32B9D"/>
<stop offset="1" stop-color="#9146FF"/>
</linearGradient>
<linearGradient id="paint1_linear_412_4628" x1="32.9161" y1="12.1828" x2="21.1908" y2="32.9839" gradientUnits="userSpaceOnUse">
<stop stop-color="#C32B9D"/>
<stop offset="1" stop-color="#9146FF"/>
</linearGradient>
<linearGradient id="paint2_linear_412_4628" x1="30.8578" y1="21.4646" x2="17.6069" y2="39.6579" gradientUnits="userSpaceOnUse">
<stop stop-color="#C32B9D"/>
<stop offset="1" stop-color="#9146FF"/>
</linearGradient>
<clipPath id="clip0_412_4628">
<rect width="18.4283" height="20.3888" fill="white" transform="translate(14.5074 13.3312)"/>
</clipPath>
</defs>
</svg>
